<svg xmlns="http://www.w3.org/2000/svg" version="1.1" xmlns:xlink="http://www.w3.org/1999/xlink" xmlns:svgjs="http://svgjs.dev/svgjs" width="1500" height="1500" viewBox="0 0 1500 1500"><rect width="1500" height="1500" fill="#000000"></rect><g transform="matrix(0.6666666666666666,0,0,0.6666666666666666,249.39393939393938,662.456408735796)"><svg viewBox="0 0 396 69" data-background-color="#293040" preserveAspectRatio="xMidYMid meet" height="261" width="1500" xmlns="http://www.w3.org/2000/svg" xmlns:xlink="http://www.w3.org/1999/xlink"><g id="tight-bounds" transform="matrix(1,0,0,1,0.2400000000000091,0.21556205304639775)"><svg viewBox="0 0 395.52 68.5688758939072" height="68.5688758939072" width="395.52"><g><svg viewBox="0 0 395.52 68.5688758939072" height="68.5688758939072" width="395.52"><g><svg viewBox="0 0 496.24742163390846 86.03137102216554" height="68.5688758939072" width="395.52"><g transform="matrix(1,0,0,1,100.72742163390849,11.89000858555255)"><svg viewBox="0 0 395.52 62.25135385106044" height="62.25135385106044" width="395.52"><g id="textblocktransform"><svg viewBox="0 0 395.52 62.25135385106044" height="62.25135385106044" width="395.52" id="textblock"><g><svg viewBox="0 0 395.52 62.25135385106044" height="62.25135385106044" width="395.52"><g transform="matrix(1,0,0,1,0,0)"><svg width="395.52" viewBox="-11.05 -34.8 313.53000000000003 49.349999999999994" height="62.25135385106044" data-palette-color="#ffffff"><path d="M26.25-2.4L25.35-15 16.95-15.25Q15.55-15.25 8.95-15.05L8.95-15.05Q7.95-12.95 6.3-9.3L6.3-9.3Q1.45 1.5-3.3 8.7L-3.3 8.7Q-7.15 14.5-9.1 14.5L-9.1 14.5Q-9.95 14.5-10.5 13.93-11.05 13.35-11.05 12.35-11.05 11.35-9.98 10-8.9 8.65-7.28 7.08-5.65 5.5-3.03 1.85-0.4-1.8 2-6.55L2-6.55Q2.4-7.3 6.05-15L6.05-15 5.8-15Q5-15 4.42-15.48 3.85-15.95 3.85-16.8 3.85-17.65 4.45-18.2 5.05-18.75 6.03-18.75 7-18.75 7.9-18.7L7.9-18.7Q12.5-28.1 16.3-31.7L16.3-31.7Q7.4-31 6.68-31 5.95-31 5.33-31.5 4.7-32 4.7-32.83 4.7-33.65 5.33-34.23 5.95-34.8 6.7-34.8L6.7-34.8 17.6-34.5 29.45-34.8Q30.35-34.8 30.9-34.25 31.45-33.7 31.45-32.83 31.45-31.95 30.88-31.48 30.3-31 29.4-31L29.4-31 28.2-31Q28.2-23 28.85-16.55 29.5-10.1 30.15-6.6 30.8-3.1 30.8-2.18 30.8-1.25 30.23-0.48 29.65 0.3 28.7 0.3 27.75 0.3 27.05-0.4 26.35-1.1 26.25-2.4L26.25-2.4ZM24.45-31.6L24.45-31.6 22.95-31.65Q17-30.9 10.75-18.65L10.75-18.65Q16.05-18.55 17.48-18.55 18.9-18.55 25.1-18.75L25.1-18.75Q24.45-27.35 24.45-31.6ZM42.45-30.1L42.45-30.1Q42.3-26.8 42.3-19.6 42.3-12.4 42.77-7.65 43.25-2.9 43.25-2.1 43.25-1.3 42.57-0.5 41.9 0.3 40.85 0.3 39.8 0.3 39.12-0.5 38.45-1.3 38.45-2.1 38.45-2.9 38.92-7.65 39.4-12.4 39.4-17 39.4-21.6 39.2-30.4L39.2-30.4Q38.2-30.45 37.45-30.98 36.7-31.5 36.7-32.45L36.7-32.45Q36.7-34.8 39.85-34.8L39.85-34.8Q42.4-34.8 45.17-33.5 47.95-32.2 51.17-28.75 54.4-25.3 56.7-20.15L56.7-20.15Q57.45-18.5 59.6-13.5 61.75-8.5 62.85-6.3L62.85-6.3Q62.75-20.9 62-26.2L62-26.2Q61.75-27.95 61.52-29.4 61.3-30.85 61.3-32.02 61.3-33.2 62.02-34 62.75-34.8 63.77-34.8 64.8-34.8 65.45-34 66.1-33.2 66.1-31.63 66.1-30.05 65.85-25.85L65.85-25.85Q65.35-16.05 65.35-2.25L65.35-2.25Q69.4 4.15 72.1 6.45L72.1 6.45Q73.6 7.75 75.22 8.63 76.85 9.5 77.7 9.8L77.7 9.8Q79.65 10.5 79.65 12.45L79.65 12.45Q79.65 13.25 78.9 13.9 78.15 14.55 77 14.55L77 14.55Q74.25 14.55 71.15 11.8 68.05 9.05 65.05 4.3L65.05 4.3Q59.45-4.7 54.2-17.95L54.2-17.95Q50.05-28.55 42.45-30.1ZM79-30.1L79-30.1Q78.84-26.8 78.84-19.6 78.84-12.4 79.32-7.65 79.8-2.9 79.8-2.1 79.8-1.3 79.12-0.5 78.45 0.3 77.4 0.3 76.34 0.3 75.67-0.5 75-1.3 75-2.1 75-2.9 75.47-7.65 75.95-12.4 75.95-17 75.95-21.6 75.75-30.4L75.75-30.4Q74.75-30.45 74-30.98 73.25-31.5 73.25-32.45L73.25-32.45Q73.25-34.8 76.4-34.8L76.4-34.8Q78.95-34.8 81.72-33.5 84.5-32.2 87.72-28.75 90.95-25.3 93.25-20.15L93.25-20.15Q94-18.5 96.15-13.5 98.3-8.5 99.4-6.3L99.4-6.3Q99.3-20.9 98.55-26.2L98.55-26.2Q98.3-27.95 98.07-29.4 97.84-30.85 97.84-32.02 97.84-33.2 98.57-34 99.3-34.8 100.32-34.8 101.34-34.8 102-34 102.65-33.2 102.65-31.63 102.65-30.05 102.4-25.85L102.4-25.85Q101.9-16.05 101.9-2.25L101.9-2.25Q105.95 4.15 108.65 6.45L108.65 6.45Q110.15 7.75 111.77 8.63 113.4 9.5 114.25 9.8L114.25 9.8Q116.2 10.5 116.2 12.45L116.2 12.45Q116.2 13.25 115.45 13.9 114.7 14.55 113.55 14.55L113.55 14.55Q110.8 14.55 107.7 11.8 104.59 9.05 101.59 4.3L101.59 4.3Q96-4.7 90.75-17.95L90.75-17.95Q86.59-28.55 79-30.1ZM133.29-2.4L132.39-15 123.99-15.25Q122.59-15.25 115.99-15.05L115.99-15.05Q114.99-12.95 113.34-9.3L113.34-9.3Q108.49 1.5 103.74 8.7L103.74 8.7Q99.89 14.5 97.94 14.5L97.94 14.5Q97.09 14.5 96.54 13.93 95.99 13.35 95.99 12.35 95.99 11.35 97.07 10 98.14 8.65 99.77 7.08 101.39 5.5 104.02 1.85 106.64-1.8 109.04-6.55L109.04-6.55Q109.44-7.3 113.09-15L113.09-15 112.84-15Q112.04-15 111.47-15.48 110.89-15.95 110.89-16.8 110.89-17.65 111.49-18.2 112.09-18.75 113.07-18.75 114.04-18.75 114.94-18.7L114.94-18.7Q119.54-28.1 123.34-31.7L123.34-31.7Q114.44-31 113.72-31 112.99-31 112.37-31.5 111.74-32 111.74-32.83 111.74-33.65 112.37-34.23 112.99-34.8 113.74-34.8L113.74-34.8 124.64-34.5 136.49-34.8Q137.39-34.8 137.94-34.25 138.49-33.7 138.49-32.83 138.49-31.95 137.92-31.48 137.34-31 136.44-31L136.44-31 135.24-31Q135.24-23 135.89-16.55 136.54-10.1 137.19-6.6 137.84-3.1 137.84-2.18 137.84-1.25 137.27-0.48 136.69 0.3 135.74 0.3 134.79 0.3 134.09-0.4 133.39-1.1 133.29-2.4L133.29-2.4ZM131.49-31.6L131.49-31.6 129.99-31.65Q124.04-30.9 117.79-18.65L117.79-18.65Q123.09-18.55 124.52-18.55 125.94-18.55 132.14-18.75L132.14-18.75Q131.49-27.35 131.49-31.6ZM160.89-34.8L160.89-34.8Q165.39-34.8 167.94-32.27 170.49-29.75 170.49-24.83 170.49-19.9 166.94-15.8 163.39-11.7 157.99-11.7L157.99-11.7Q154.89-11.7 153.99-12.5L153.99-12.5Q153.34-13.15 153.34-14.08 153.34-15 153.94-15.53 154.54-16.05 155.31-16.05 156.09-16.05 157.42-15.55 158.74-15.05 160.04-15.05L160.04-15.05Q162.84-15.05 164.92-17.32 166.99-19.6 166.99-22.98 166.99-26.35 164.77-28.85 162.54-31.35 158.99-31.35 155.44-31.35 152.39-29.45L152.39-29.45Q151.79-14.15 151.79 10.2L151.79 10.2Q151.79 14.55 149.04 14.55L149.04 14.55Q147.99 14.55 147.17 13.75 146.34 12.95 146.34 11.73 146.34 10.5 147.42 9 148.49 7.5 148.49 5.85L148.49 5.85Q148.49-10.3 148.34-15.3L148.34-15.3Q148.09-23.65 148.09-25.8L148.09-25.8Q146.69-24.15 145.84-22.4 144.99-20.65 143.99-20.65L143.99-20.65Q142.64-20.65 142.64-22.05 142.64-23.45 144.19-25.53 145.74-27.6 148.17-29.68 150.59-31.75 154.06-33.27 157.54-34.8 160.89-34.8ZM180.26-34.8Q183.14-34.8 184.81-32.98 186.49-31.15 186.49-28.98 186.49-26.8 185.31-24.58 184.14-22.35 182.76-20.55 181.39-18.75 180.21-16.25 179.04-13.75 179.04-11.4L179.04-11.4Q179.04-7.25 181.79-5.2 184.54-3.15 188.69-3.15L188.69-3.15Q190.84-3.15 193.26-4.13 195.69-5.1 197.09-6.25L197.09-6.25Q197.39-13.75 197.39-18.43 197.39-23.1 197.16-27.53 196.94-31.95 196.94-32.1L196.94-32.1Q196.94-33.15 197.61-33.98 198.29-34.8 199.34-34.8 200.39-34.8 201.06-33.98 201.74-33.15 201.74-32.1L201.74-32.1Q201.74-31.95 201.51-27.53 201.29-23.1 201.29-17.75 201.29-12.4 201.51-7.65 201.74-2.9 201.74-2.1 201.74-1.3 201.06-0.5 200.39 0.3 199.34 0.3 198.29 0.3 197.61-0.5 196.94-1.3 196.94-2.3L196.94-2.3 196.94-3.65Q192.19 0.3 186.96 0.3 181.74 0.3 178.31-2.4 174.89-5.1 174.89-9.7L174.89-9.7Q174.89-12.7 176.11-15.55 177.34-18.4 178.79-20.2L178.79-20.2Q182.69-24.95 182.69-27.6L182.69-27.6Q182.69-31 179.14-31L179.14-31Q177.74-31 176.86-29.9 175.99-28.8 175.99-26.9L175.99-26.9Q175.99-26.25 175.56-25.78 175.14-25.3 174.54-25.3 173.94-25.3 173.56-25.78 173.19-26.25 173.19-26.9L173.19-26.9Q173.19-30.25 175.29-32.52 177.39-34.8 180.26-34.8ZM215.79-13.15L215.79-13.15 216.24-2.3Q216.24-1.3 215.56-0.5 214.89 0.3 213.84 0.3 212.79 0.3 212.11-0.5 211.44-1.3 211.44-2.1 211.44-2.9 211.66-7.65 211.89-12.4 211.89-16.85 211.89-21.3 211.79-24.18 211.69-27.05 211.56-28.8 211.44-30.55 211.44-31.05L211.44-31.05 210.54-31.05Q209.74-31.05 209.11-31.58 208.49-32.1 208.49-32.93 208.49-33.75 209.11-34.27 209.74-34.8 210.36-34.8 210.99-34.8 212.06-34.65 213.14-34.5 214.19-34.5L214.19-34.5 221.59-34.8Q224.59-34.8 227.59-32.7L227.59-32.7Q229.14-31.6 230.09-29.55 231.04-27.5 231.04-24.8L231.04-24.8Q231.04-20.45 228.76-17.57 226.49-14.7 223.29-13.35L223.29-13.35Q225.84-12.1 228.41-9.08 230.99-6.05 233.86-1.8 236.74 2.45 238.29 4.3 239.84 6.15 241.79 7.68 243.74 9.2 244.54 9.98 245.34 10.75 245.34 11.85 245.34 12.95 244.49 13.73 243.64 14.5 242.24 14.5L242.24 14.5Q240.34 14.5 238.06 11.65 235.79 8.8 233.44 4.75 231.09 0.7 228.51-3.38 225.94-7.45 222.59-10.3 219.24-13.15 215.79-13.15ZM219.14-31.35L219.14-31.35 216.24-31.3Q216.24-30.75 216.09-29L216.09-29Q215.79-24.45 215.79-17.4L215.79-17.4 215.79-16.05Q218.29-15.35 219.31-15.35 220.34-15.35 221.24-15.53 222.14-15.7 223.29-16.23 224.44-16.75 225.34-17.55 226.24-18.35 226.86-19.75 227.49-21.15 227.49-22.95L227.49-22.95Q227.49-27.25 225.06-29.3 222.64-31.35 219.14-31.35ZM242.98-30.1L242.98-30.1Q242.83-26.8 242.83-19.6 242.83-12.4 243.31-7.65 243.78-2.9 243.78-2.1 243.78-1.3 243.11-0.5 242.43 0.3 241.38 0.3 240.33 0.3 239.66-0.5 238.98-1.3 238.98-2.1 238.98-2.9 239.46-7.65 239.93-12.4 239.93-17 239.93-21.6 239.73-30.4L239.73-30.4Q238.73-30.45 237.98-30.98 237.23-31.5 237.23-32.45L237.23-32.45Q237.23-34.8 240.38-34.8L240.38-34.8Q242.93-34.8 245.71-33.5 248.48-32.2 251.71-28.75 254.93-25.3 257.23-20.15L257.23-20.15Q257.98-18.5 260.13-13.5 262.28-8.5 263.38-6.3L263.38-6.3Q263.28-20.9 262.53-26.2L262.53-26.2Q262.28-27.95 262.06-29.4 261.83-30.85 261.83-32.02 261.83-33.2 262.56-34 263.28-34.8 264.31-34.8 265.33-34.8 265.98-34 266.63-33.2 266.63-31.63 266.63-30.05 266.38-25.85L266.38-25.85Q265.88-16.05 265.88-2.25L265.88-2.25Q269.93 4.15 272.63 6.45L272.63 6.45Q274.13 7.75 275.76 8.63 277.38 9.5 278.23 9.8L278.23 9.8Q280.18 10.5 280.18 12.45L280.18 12.45Q280.18 13.25 279.43 13.9 278.68 14.55 277.53 14.55L277.53 14.55Q274.78 14.55 271.68 11.8 268.58 9.05 265.58 4.3L265.58 4.3Q259.98-4.7 254.73-17.95L254.73-17.95Q250.58-28.55 242.98-30.1ZM297.28-2.4L296.38-15 287.98-15.25Q286.58-15.25 279.98-15.05L279.98-15.05Q278.98-12.95 277.33-9.3L277.33-9.3Q272.48 1.5 267.73 8.7L267.73 8.7Q263.88 14.5 261.93 14.5L261.93 14.5Q261.08 14.5 260.53 13.93 259.98 13.35 259.98 12.35 259.98 11.35 261.06 10 262.13 8.65 263.76 7.08 265.38 5.5 268.01 1.85 270.63-1.8 273.03-6.55L273.03-6.55Q273.43-7.3 277.08-15L277.08-15 276.83-15Q276.03-15 275.46-15.48 274.88-15.95 274.88-16.8 274.88-17.65 275.48-18.2 276.08-18.75 277.06-18.75 278.03-18.75 278.93-18.7L278.93-18.7Q283.53-28.1 287.33-31.7L287.33-31.7Q278.43-31 277.71-31 276.98-31 276.36-31.5 275.73-32 275.73-32.83 275.73-33.65 276.36-34.23 276.98-34.8 277.73-34.8L277.73-34.8 288.63-34.5 300.48-34.8Q301.38-34.8 301.93-34.25 302.48-33.7 302.48-32.83 302.48-31.95 301.91-31.48 301.33-31 300.43-31L300.43-31 299.23-31Q299.23-23 299.88-16.55 300.53-10.1 301.18-6.6 301.83-3.1 301.83-2.18 301.83-1.25 301.26-0.48 300.68 0.3 299.73 0.3 298.78 0.3 298.08-0.4 297.38-1.1 297.28-2.4L297.28-2.4ZM295.48-31.6L295.48-31.6 293.98-31.65Q288.03-30.9 281.78-18.65L281.78-18.65Q287.08-18.55 288.51-18.55 289.93-18.55 296.13-18.75L296.13-18.75Q295.48-27.35 295.48-31.6Z" opacity="1" transform="matrix(1,0,0,1,0,0)" fill="#ffffff" class="wordmark-text-0" data-fill-palette-color="primary" id="text-0"></path></svg></g></svg></g></svg></g></svg></g><g><svg viewBox="0 0 86.03137102216554 86.03137102216554" height="86.03137102216554" width="86.03137102216554"><g><svg xmlns="http://www.w3.org/2000/svg" xmlns:xlink="http://www.w3.org/1999/xlink" version="1.1" x="0" y="0" viewBox="5 5 90 90" style="enable-background:new 0 0 100 100;" xml:space="preserve" height="86.03137102216554" width="86.03137102216554" class="icon-icon-0" data-fill-palette-color="accent" id="icon-0"><path d="M53.75 5C42.731 5 32.373 9.291 24.582 17.082L17.082 24.582C9.291 32.373 5 42.731 5 53.75S9.291 75.127 17.082 82.918 35.231 95 46.25 95 67.627 90.709 75.418 82.918L82.918 75.418C90.709 67.627 95 57.269 95 46.25S90.709 24.873 82.918 17.082 64.769 5 53.75 5M71.883 79.383C57.748 93.516 34.752 93.516 20.617 79.383 6.483 65.249 6.483 42.251 20.617 28.117 27.684 21.051 36.967 17.516 46.25 17.516S64.815 21.05 71.883 28.117C86.017 42.251 86.017 65.249 71.883 79.383M86.858 60.994A42 42 0 0 0 87.5 53.75C87.5 42.731 83.209 32.373 75.418 24.582S57.269 12.5 46.25 12.5C43.795 12.5 41.375 12.725 39.007 13.142A36.3 36.3 0 0 1 53.75 10.016C63.033 10.016 72.315 13.55 79.383 20.617 90.281 31.516 92.767 47.682 86.858 60.994" fill="#ffffff" data-fill-palette-color="accent"></path><path d="M46.25 22.5A31.07 31.07 0 0 0 28.74 27.88 2 2 0 0 0 28.494 28.055C20.349 33.701 15 43.11 15 53.75 15 70.981 29.019 85 46.25 85 56.891 85 66.302 79.65 71.948 71.503 72.009 71.424 72.069 71.346 72.12 71.262A31.1 31.1 0 0 0 77.5 53.75C77.5 36.519 63.481 22.5 46.25 22.5M46.25 80C31.775 80 20 68.225 20 53.75 20 49.514 21.015 45.512 22.805 41.966A31.5 31.5 0 0 0 22.5 46.25C22.5 63.481 36.519 77.5 53.75 77.5 55.193 77.5 56.622 77.389 58.034 77.195A26.1 26.1 0 0 1 46.25 80M68.171 68.166A26.1 26.1 0 0 1 53.75 72.5C39.275 72.5 27.5 60.725 27.5 46.25A26.1 26.1 0 0 1 31.834 31.829 26.1 26.1 0 0 1 46.25 27.5C60.725 27.5 72.5 39.275 72.5 53.75A26.1 26.1 0 0 1 68.171 68.166" fill="#ffffff" data-fill-palette-color="accent"></path></svg></g></svg></g></svg></g></svg></g><defs></defs></svg><rect width="395.52" height="68.5688758939072" fill="none" stroke="none" visibility="hidden"></rect></g></svg></g></svg>